<svg xmlns="http://www.w3.org/2000/svg" viewBox="0 0 1600 900" preserveAspectRatio="xMidYMid slice"><defs><linearGradient id="s" x1="0" y1="0" x2="0" y2="1"><stop offset="0" stop-color="#020611"/><stop offset="0.6" stop-color="#06223a"/><stop offset="1" stop-color="#0b3a4a"/></linearGradient><filter id="g" x="0" y="0" width="100%" height="100%"><feTurbulence type="fractalNoise" baseFrequency=".9" numOctaves="2" stitchTiles="stitch"/><feColorMatrix values="0 0 0 0 1  0 0 0 0 1  0 0 0 0 1  0 0 0 .07 0"/></filter><filter id="b" filterUnits="userSpaceOnUse" x="-400" y="-400" width="2400" height="1700"><feGaussianBlur stdDeviation="40"/></filter><filter id="b2" x="-20%" y="-20%" width="140%" height="140%"><feGaussianBlur stdDeviation="8"/></filter><linearGradient id="vig" x1="0" y1="0" x2="0" y2="1"><stop offset=".45" stop-color="#000" stop-opacity="0"/><stop offset="1" stop-color="#000" stop-opacity=".85"/></linearGradient></defs><rect width="1600" height="900" fill="url(#s)"/><circle cx="215" cy="339" r="0.8" fill="#fff" opacity="0.28"/><circle cx="793" cy="180" r="1.6" fill="#fff" opacity="0.44"/><circle cx="150" cy="11" r="1.6" fill="#fff" opacity="0.33"/><circle cx="1220" cy="1" r="1.6" fill="#fff" opacity="0.28"/><circle cx="1283" cy="236" r="0.8" fill="#fff" opacity="0.47"/><circle cx="49" cy="10" r="0.8" fill="#fff" opacity="0.48"/><circle cx="610" cy="87" r="1.6" fill="#fff" opacity="0.42"/><circle cx="844" cy="305" r="1.6" fill="#fff" opacity="0.37"/><circle cx="553" cy="271" r="1.6" fill="#fff" opacity="0.49"/><circle cx="1482" cy="166" r="0.8" fill="#fff" opacity="0.26"/><circle cx="1588" cy="344" r="0.8" fill="#fff" opacity="0.42"/><circle cx="1433" cy="389" r="1.6" fill="#fff" opacity="0.35"/><circle cx="1456" cy="76" r="1.2" fill="#fff" opacity="0.38"/><circle cx="1412" cy="338" r="1.6" fill="#fff" opacity="0.38"/><circle cx="55" cy="97" r="1.6" fill="#fff" opacity="0.32"/><circle cx="277" cy="220" r="1.2" fill="#fff" opacity="0.23"/><circle cx="1062" cy="43" r="1.0" fill="#fff" opacity="0.36"/><circle cx="629" cy="196" r="0.8" fill="#fff" opacity="0.34"/><circle cx="494" cy="339" r="1.6" fill="#fff" opacity="0.39"/><circle cx="270" cy="91" r="0.8" fill="#fff" opacity="0.43"/><circle cx="863" cy="344" r="1.0" fill="#fff" opacity="0.32"/><circle cx="550" cy="339" r="1.2" fill="#fff" opacity="0.34"/><circle cx="431" cy="219" r="0.8" fill="#fff" opacity="0.32"/><circle cx="1371" cy="382" r="1.0" fill="#fff" opacity="0.36"/><circle cx="898" cy="170" r="0.8" fill="#fff" opacity="0.34"/><circle cx="584" cy="222" r="1.6" fill="#fff" opacity="0.35"/><circle cx="571" cy="138" r="1.2" fill="#fff" opacity="0.34"/><circle cx="45" cy="92" r="1.0" fill="#fff" opacity="0.37"/><circle cx="289" cy="37" r="1.2" fill="#fff" opacity="0.21"/><circle cx="1510" cy="28" r="0.8" fill="#fff" opacity="0.34"/><circle cx="1207" cy="112" r="1.2" fill="#fff" opacity="0.23"/><circle cx="1000" cy="138" r="0.8" fill="#fff" opacity="0.25"/><circle cx="408" cy="381" r="1.2" fill="#fff" opacity="0.39"/><circle cx="471" cy="281" r="1.6" fill="#fff" opacity="0.34"/><circle cx="38" cy="155" r="1.6" fill="#fff" opacity="0.44"/><circle cx="413" cy="101" r="1.0" fill="#fff" opacity="0.49"/><circle cx="691" cy="390" r="1.0" fill="#fff" opacity="0.21"/><circle cx="234" cy="288" r="1.0" fill="#fff" opacity="0.33"/><circle cx="810" cy="171" r="1.0" fill="#fff" opacity="0.49"/><circle cx="1009" cy="278" r="1.6" fill="#fff" opacity="0.27"/><circle cx="1038" cy="158" r="1.2" fill="#fff" opacity="0.40"/><circle cx="682" cy="295" r="1.0" fill="#fff" opacity="0.49"/><circle cx="1401" cy="123" r="0.8" fill="#fff" opacity="0.29"/><circle cx="1503" cy="298" r="1.6" fill="#fff" opacity="0.37"/><circle cx="209" cy="224" r="0.8" fill="#fff" opacity="0.38"/><circle cx="348" cy="360" r="1.6" fill="#fff" opacity="0.25"/><circle cx="1388" cy="390" r="0.8" fill="#fff" opacity="0.31"/><circle cx="555" cy="82" r="1.6" fill="#fff" opacity="0.38"/><circle cx="788" cy="375" r="1.6" fill="#fff" opacity="0.29"/><circle cx="800" cy="130" r="1.6" fill="#fff" opacity="0.47"/><circle cx="29" cy="80" r="1.2" fill="#fff" opacity="0.44"/><circle cx="901" cy="54" r="1.6" fill="#fff" opacity="0.26"/><circle cx="1079" cy="335" r="1.2" fill="#fff" opacity="0.47"/><circle cx="1340" cy="214" r="1.0" fill="#fff" opacity="0.22"/><circle cx="65" cy="53" r="1.0" fill="#fff" opacity="0.47"/><circle cx="341" cy="304" r="1.2" fill="#fff" opacity="0.31"/><circle cx="544" cy="116" r="1.6" fill="#fff" opacity="0.24"/><circle cx="882" cy="42" r="0.8" fill="#fff" opacity="0.32"/><circle cx="608" cy="396" r="1.0" fill="#fff" opacity="0.45"/><circle cx="545" cy="246" r="1.6" fill="#fff" opacity="0.22"/><circle cx="880" cy="226" r="1.2" fill="#fff" opacity="0.31"/><circle cx="473" cy="214" r="0.8" fill="#fff" opacity="0.34"/><circle cx="443" cy="315" r="1.2" fill="#fff" opacity="0.20"/><circle cx="1073" cy="37" r="0.8" fill="#fff" opacity="0.45"/><circle cx="1264" cy="75" r="1.6" fill="#fff" opacity="0.25"/><circle cx="721" cy="272" r="1.0" fill="#fff" opacity="0.42"/><circle cx="165" cy="364" r="1.6" fill="#fff" opacity="0.44"/><circle cx="869" cy="327" r="1.2" fill="#fff" opacity="0.41"/><circle cx="503" cy="83" r="1.2" fill="#fff" opacity="0.21"/><circle cx="17" cy="393" r="1.2" fill="#fff" opacity="0.42"/><circle cx="512" cy="157" r="1.6" fill="#fff" opacity="0.22"/><circle cx="1461" cy="388" r="1.6" fill="#fff" opacity="0.23"/><circle cx="344" cy="247" r="1.6" fill="#fff" opacity="0.40"/><circle cx="415" cy="217" r="1.2" fill="#fff" opacity="0.26"/><circle cx="577" cy="328" r="0.8" fill="#fff" opacity="0.50"/><circle cx="717" cy="261" r="1.2" fill="#fff" opacity="0.48"/><circle cx="625" cy="123" r="1.2" fill="#fff" opacity="0.26"/><circle cx="1268" cy="232" r="1.2" fill="#fff" opacity="0.27"/><circle cx="162" cy="245" r="0.8" fill="#fff" opacity="0.27"/><circle cx="33" cy="98" r="0.8" fill="#fff" opacity="0.28"/><circle cx="1388" cy="292" r="0.8" fill="#fff" opacity="0.39"/><circle cx="465" cy="317" r="1.6" fill="#fff" opacity="0.34"/><circle cx="1375" cy="40" r="1.2" fill="#fff" opacity="0.22"/><circle cx="1519" cy="69" r="1.0" fill="#fff" opacity="0.50"/><circle cx="1314" cy="128" r="0.8" fill="#fff" opacity="0.41"/><circle cx="1336" cy="241" r="1.0" fill="#fff" opacity="0.47"/><circle cx="227" cy="364" r="0.8" fill="#fff" opacity="0.43"/><circle cx="1314" cy="249" r="1.0" fill="#fff" opacity="0.25"/><circle cx="692" cy="63" r="1.0" fill="#fff" opacity="0.28"/><circle cx="103" cy="385" r="1.6" fill="#fff" opacity="0.36"/><ellipse cx="1100" cy="420" rx="520" ry="260" fill="#11b88a" opacity=".22" filter="url(#b)"/><g filter="url(#b2)" opacity=".7"><line x1="647" y1="476" x2="647" y2="540" stroke="#3ee6a8" stroke-width="2" opacity=".8"/><rect x="640" y="501" width="14" height="19" fill="#3ee6a8"/><line x1="674" y1="473" x2="674" y2="516" stroke="#ff5b6e" stroke-width="2" opacity=".8"/><rect x="667" y="501" width="14" height="5" fill="#ff5b6e"/><line x1="701" y1="438" x2="701" y2="522" stroke="#3ee6a8" stroke-width="2" opacity=".8"/><rect x="694" y="473" width="14" height="33" fill="#3ee6a8"/><line x1="728" y1="414" x2="728" y2="496" stroke="#3ee6a8" stroke-width="2" opacity=".8"/><rect x="721" y="454" width="14" height="19" fill="#3ee6a8"/><line x1="755" y1="430" x2="755" y2="502" stroke="#ff5b6e" stroke-width="2" opacity=".8"/><rect x="748" y="454" width="14" height="20" fill="#ff5b6e"/><line x1="782" y1="421" x2="782" y2="509" stroke="#3ee6a8" stroke-width="2" opacity=".8"/><rect x="775" y="449" width="14" height="24" fill="#3ee6a8"/><line x1="809" y1="417" x2="809" y2="478" stroke="#3ee6a8" stroke-width="2" opacity=".8"/><rect x="802" y="448" width="14" height="3" fill="#3ee6a8"/><line x1="836" y1="386" x2="836" y2="475" stroke="#3ee6a8" stroke-width="2" opacity=".8"/><rect x="829" y="418" width="14" height="30" fill="#3ee6a8"/><line x1="863" y1="395" x2="863" y2="454" stroke="#3ee6a8" stroke-width="2" opacity=".8"/><rect x="856" y="404" width="14" height="15" fill="#3ee6a8"/><line x1="890" y1="369" x2="890" y2="440" stroke="#3ee6a8" stroke-width="2" opacity=".8"/><rect x="883" y="400" width="14" height="4" fill="#3ee6a8"/><line x1="917" y1="363" x2="917" y2="432" stroke="#ff5b6e" stroke-width="2" opacity=".8"/><rect x="910" y="400" width="14" height="12" fill="#ff5b6e"/><line x1="944" y1="389" x2="944" y2="467" stroke="#ff5b6e" stroke-width="2" opacity=".8"/><rect x="937" y="412" width="14" height="17" fill="#ff5b6e"/><line x1="971" y1="418" x2="971" y2="464" stroke="#ff5b6e" stroke-width="2" opacity=".8"/><rect x="964" y="429" width="14" height="22" fill="#ff5b6e"/><line x1="998" y1="392" x2="998" y2="473" stroke="#3ee6a8" stroke-width="2" opacity=".8"/><rect x="991" y="431" width="14" height="20" fill="#3ee6a8"/><line x1="1025" y1="413" x2="1025" y2="461" stroke="#ff5b6e" stroke-width="2" opacity=".8"/><rect x="1018" y="431" width="14" height="6" fill="#ff5b6e"/><line x1="1052" y1="409" x2="1052" y2="464" stroke="#3ee6a8" stroke-width="2" opacity=".8"/><rect x="1045" y="428" width="14" height="9" fill="#3ee6a8"/><line x1="1079" y1="391" x2="1079" y2="461" stroke="#ff5b6e" stroke-width="2" opacity=".8"/><rect x="1072" y="428" width="14" height="3" fill="#ff5b6e"/><line x1="1106" y1="396" x2="1106" y2="496" stroke="#ff5b6e" stroke-width="2" opacity=".8"/><rect x="1099" y="431" width="14" height="25" fill="#ff5b6e"/><line x1="1133" y1="444" x2="1133" y2="501" stroke="#ff5b6e" stroke-width="2" opacity=".8"/><rect x="1126" y="457" width="14" height="9" fill="#ff5b6e"/><line x1="1160" y1="429" x2="1160" y2="520" stroke="#ff5b6e" stroke-width="2" opacity=".8"/><rect x="1153" y="466" width="14" height="28" fill="#ff5b6e"/><line x1="1187" y1="479" x2="1187" y2="540" stroke="#ff5b6e" stroke-width="2" opacity=".8"/><rect x="1180" y="493" width="14" height="12" fill="#ff5b6e"/><line x1="1214" y1="488" x2="1214" y2="518" stroke="#ff5b6e" stroke-width="2" opacity=".8"/><rect x="1207" y="505" width="14" height="3" fill="#ff5b6e"/><line x1="1241" y1="468" x2="1241" y2="539" stroke="#ff5b6e" stroke-width="2" opacity=".8"/><rect x="1234" y="508" width="14" height="21" fill="#ff5b6e"/><line x1="1268" y1="507" x2="1268" y2="559" stroke="#ff5b6e" stroke-width="2" opacity=".8"/><rect x="1261" y="528" width="14" height="17" fill="#ff5b6e"/><line x1="1295" y1="498" x2="1295" y2="582" stroke="#3ee6a8" stroke-width="2" opacity=".8"/><rect x="1288" y="531" width="14" height="15" fill="#3ee6a8"/><line x1="1322" y1="472" x2="1322" y2="540" stroke="#3ee6a8" stroke-width="2" opacity=".8"/><rect x="1315" y="499" width="14" height="31" fill="#3ee6a8"/><line x1="1349" y1="481" x2="1349" y2="548" stroke="#ff5b6e" stroke-width="2" opacity=".8"/><rect x="1342" y="499" width="14" height="12" fill="#ff5b6e"/><line x1="1376" y1="487" x2="1376" y2="580" stroke="#ff5b6e" stroke-width="2" opacity=".8"/><rect x="1369" y="511" width="14" height="29" fill="#ff5b6e"/><line x1="1403" y1="515" x2="1403" y2="567" stroke="#3ee6a8" stroke-width="2" opacity=".8"/><rect x="1396" y="526" width="14" height="14" fill="#3ee6a8"/><line x1="1430" y1="480" x2="1430" y2="547" stroke="#3ee6a8" stroke-width="2" opacity=".8"/><rect x="1423" y="494" width="14" height="32" fill="#3ee6a8"/><line x1="1457" y1="481" x2="1457" y2="508" stroke="#ff5b6e" stroke-width="2" opacity=".8"/><rect x="1450" y="494" width="14" height="5" fill="#ff5b6e"/><line x1="1484" y1="481" x2="1484" y2="559" stroke="#ff5b6e" stroke-width="2" opacity=".8"/><rect x="1477" y="499" width="14" height="22" fill="#ff5b6e"/><line x1="1511" y1="500" x2="1511" y2="567" stroke="#ff5b6e" stroke-width="2" opacity=".8"/><rect x="1504" y="521" width="14" height="23" fill="#ff5b6e"/><line x1="1538" y1="515" x2="1538" y2="571" stroke="#3ee6a8" stroke-width="2" opacity=".8"/><rect x="1531" y="543" width="14" height="3" fill="#3ee6a8"/></g><g><line x1="647" y1="476" x2="647" y2="540" stroke="#3ee6a8" stroke-width="2" opacity=".8"/><rect x="640" y="501" width="14" height="19" fill="#3ee6a8"/><line x1="674" y1="473" x2="674" y2="516" stroke="#ff5b6e" stroke-width="2" opacity=".8"/><rect x="667" y="501" width="14" height="5" fill="#ff5b6e"/><line x1="701" y1="438" x2="701" y2="522" stroke="#3ee6a8" stroke-width="2" opacity=".8"/><rect x="694" y="473" width="14" height="33" fill="#3ee6a8"/><line x1="728" y1="414" x2="728" y2="496" stroke="#3ee6a8" stroke-width="2" opacity=".8"/><rect x="721" y="454" width="14" height="19" fill="#3ee6a8"/><line x1="755" y1="430" x2="755" y2="502" stroke="#ff5b6e" stroke-width="2" opacity=".8"/><rect x="748" y="454" width="14" height="20" fill="#ff5b6e"/><line x1="782" y1="421" x2="782" y2="509" stroke="#3ee6a8" stroke-width="2" opacity=".8"/><rect x="775" y="449" width="14" height="24" fill="#3ee6a8"/><line x1="809" y1="417" x2="809" y2="478" stroke="#3ee6a8" stroke-width="2" opacity=".8"/><rect x="802" y="448" width="14" height="3" fill="#3ee6a8"/><line x1="836" y1="386" x2="836" y2="475" stroke="#3ee6a8" stroke-width="2" opacity=".8"/><rect x="829" y="418" width="14" height="30" fill="#3ee6a8"/><line x1="863" y1="395" x2="863" y2="454" stroke="#3ee6a8" stroke-width="2" opacity=".8"/><rect x="856" y="404" width="14" height="15" fill="#3ee6a8"/><line x1="890" y1="369" x2="890" y2="440" stroke="#3ee6a8" stroke-width="2" opacity=".8"/><rect x="883" y="400" width="14" height="4" fill="#3ee6a8"/><line x1="917" y1="363" x2="917" y2="432" stroke="#ff5b6e" stroke-width="2" opacity=".8"/><rect x="910" y="400" width="14" height="12" fill="#ff5b6e"/><line x1="944" y1="389" x2="944" y2="467" stroke="#ff5b6e" stroke-width="2" opacity=".8"/><rect x="937" y="412" width="14" height="17" fill="#ff5b6e"/><line x1="971" y1="418" x2="971" y2="464" stroke="#ff5b6e" stroke-width="2" opacity=".8"/><rect x="964" y="429" width="14" height="22" fill="#ff5b6e"/><line x1="998" y1="392" x2="998" y2="473" stroke="#3ee6a8" stroke-width="2" opacity=".8"/><rect x="991" y="431" width="14" height="20" fill="#3ee6a8"/><line x1="1025" y1="413" x2="1025" y2="461" stroke="#ff5b6e" stroke-width="2" opacity=".8"/><rect x="1018" y="431" width="14" height="6" fill="#ff5b6e"/><line x1="1052" y1="409" x2="1052" y2="464" stroke="#3ee6a8" stroke-width="2" opacity=".8"/><rect x="1045" y="428" width="14" height="9" fill="#3ee6a8"/><line x1="1079" y1="391" x2="1079" y2="461" stroke="#ff5b6e" stroke-width="2" opacity=".8"/><rect x="1072" y="428" width="14" height="3" fill="#ff5b6e"/><line x1="1106" y1="396" x2="1106" y2="496" stroke="#ff5b6e" stroke-width="2" opacity=".8"/><rect x="1099" y="431" width="14" height="25" fill="#ff5b6e"/><line x1="1133" y1="444" x2="1133" y2="501" stroke="#ff5b6e" stroke-width="2" opacity=".8"/><rect x="1126" y="457" width="14" height="9" fill="#ff5b6e"/><line x1="1160" y1="429" x2="1160" y2="520" stroke="#ff5b6e" stroke-width="2" opacity=".8"/><rect x="1153" y="466" width="14" height="28" fill="#ff5b6e"/><line x1="1187" y1="479" x2="1187" y2="540" stroke="#ff5b6e" stroke-width="2" opacity=".8"/><rect x="1180" y="493" width="14" height="12" fill="#ff5b6e"/><line x1="1214" y1="488" x2="1214" y2="518" stroke="#ff5b6e" stroke-width="2" opacity=".8"/><rect x="1207" y="505" width="14" height="3" fill="#ff5b6e"/><line x1="1241" y1="468" x2="1241" y2="539" stroke="#ff5b6e" stroke-width="2" opacity=".8"/><rect x="1234" y="508" width="14" height="21" fill="#ff5b6e"/><line x1="1268" y1="507" x2="1268" y2="559" stroke="#ff5b6e" stroke-width="2" opacity=".8"/><rect x="1261" y="528" width="14" height="17" fill="#ff5b6e"/><line x1="1295" y1="498" x2="1295" y2="582" stroke="#3ee6a8" stroke-width="2" opacity=".8"/><rect x="1288" y="531" width="14" height="15" fill="#3ee6a8"/><line x1="1322" y1="472" x2="1322" y2="540" stroke="#3ee6a8" stroke-width="2" opacity=".8"/><rect x="1315" y="499" width="14" height="31" fill="#3ee6a8"/><line x1="1349" y1="481" x2="1349" y2="548" stroke="#ff5b6e" stroke-width="2" opacity=".8"/><rect x="1342" y="499" width="14" height="12" fill="#ff5b6e"/><line x1="1376" y1="487" x2="1376" y2="580" stroke="#ff5b6e" stroke-width="2" opacity=".8"/><rect x="1369" y="511" width="14" height="29" fill="#ff5b6e"/><line x1="1403" y1="515" x2="1403" y2="567" stroke="#3ee6a8" stroke-width="2" opacity=".8"/><rect x="1396" y="526" width="14" height="14" fill="#3ee6a8"/><line x1="1430" y1="480" x2="1430" y2="547" stroke="#3ee6a8" stroke-width="2" opacity=".8"/><rect x="1423" y="494" width="14" height="32" fill="#3ee6a8"/><line x1="1457" y1="481" x2="1457" y2="508" stroke="#ff5b6e" stroke-width="2" opacity=".8"/><rect x="1450" y="494" width="14" height="5" fill="#ff5b6e"/><line x1="1484" y1="481" x2="1484" y2="559" stroke="#ff5b6e" stroke-width="2" opacity=".8"/><rect x="1477" y="499" width="14" height="22" fill="#ff5b6e"/><line x1="1511" y1="500" x2="1511" y2="567" stroke="#ff5b6e" stroke-width="2" opacity=".8"/><rect x="1504" y="521" width="14" height="23" fill="#ff5b6e"/><line x1="1538" y1="515" x2="1538" y2="571" stroke="#3ee6a8" stroke-width="2" opacity=".8"/><rect x="1531" y="543" width="14" height="3" fill="#3ee6a8"/></g><rect y="560" width="1600" height="340" fill="#0b3a4a" opacity=".5" filter="url(#b)"/><rect x="0" y="765" width="72" height="135" fill="#04080d"/><rect x="8" y="779" width="5" height="8" fill="#ffd27a" opacity=".55"/><rect x="40" y="779" width="5" height="8" fill="#ffd27a" opacity=".55"/><rect x="24" y="801" width="5" height="8" fill="#ffd27a" opacity=".55"/><rect x="8" y="823" width="5" height="8" fill="#ffd27a" opacity=".55"/><rect x="24" y="845" width="5" height="8" fill="#ffd27a" opacity=".55"/><rect x="56" y="845" width="5" height="8" fill="#ffd27a" opacity=".55"/><rect x="40" y="889" width="5" height="8" fill="#ffd27a" opacity=".55"/><rect x="80" y="756" width="91" height="144" fill="#04080d"/><rect x="87" y="769" width="5" height="8" fill="#ffd27a" opacity=".55"/><rect x="135" y="791" width="5" height="8" fill="#ffd27a" opacity=".55"/><rect x="103" y="813" width="5" height="8" fill="#ffd27a" opacity=".55"/><rect x="151" y="813" width="5" height="8" fill="#ffd27a" opacity=".55"/><rect x="103" y="835" width="5" height="8" fill="#ffd27a" opacity=".55"/><rect x="87" y="857" width="5" height="8" fill="#ffd27a" opacity=".55"/><rect x="103" y="857" width="5" height="8" fill="#ffd27a" opacity=".55"/><rect x="135" y="857" width="5" height="8" fill="#ffd27a" opacity=".55"/><rect x="151" y="857" width="5" height="8" fill="#ffd27a" opacity=".55"/><rect x="173" y="805" width="81" height="95" fill="#04080d"/><rect x="213" y="819" width="5" height="8" fill="#ffd27a" opacity=".55"/><rect x="197" y="841" width="5" height="8" fill="#ffd27a" opacity=".55"/><rect x="197" y="863" width="5" height="8" fill="#ffd27a" opacity=".55"/><rect x="213" y="885" width="5" height="8" fill="#ffd27a" opacity=".55"/><rect x="261" y="685" width="81" height="215" fill="#04080d"/><rect x="269" y="699" width="5" height="8" fill="#ffd27a" opacity=".55"/><rect x="317" y="721" width="5" height="8" fill="#ffd27a" opacity=".55"/><rect x="269" y="765" width="5" height="8" fill="#ffd27a" opacity=".55"/><rect x="301" y="765" width="5" height="8" fill="#ffd27a" opacity=".55"/><rect x="333" y="765" width="5" height="8" fill="#ffd27a" opacity=".55"/><rect x="333" y="831" width="5" height="8" fill="#ffd27a" opacity=".55"/><rect x="301" y="853" width="5" height="8" fill="#ffd27a" opacity=".55"/><rect x="333" y="853" width="5" height="8" fill="#ffd27a" opacity=".55"/><rect x="317" y="875" width="5" height="8" fill="#ffd27a" opacity=".55"/><rect x="333" y="875" width="5" height="8" fill="#ffd27a" opacity=".55"/><rect x="346" y="718" width="67" height="182" fill="#04080d"/><rect x="386" y="731" width="5" height="8" fill="#ffd27a" opacity=".55"/><rect x="354" y="753" width="5" height="8" fill="#ffd27a" opacity=".55"/><rect x="370" y="753" width="5" height="8" fill="#ffd27a" opacity=".55"/><rect x="354" y="775" width="5" height="8" fill="#ffd27a" opacity=".55"/><rect x="386" y="797" width="5" height="8" fill="#ffd27a" opacity=".55"/><rect x="402" y="819" width="5" height="8" fill="#ffd27a" opacity=".55"/><rect x="354" y="841" width="5" height="8" fill="#ffd27a" opacity=".55"/><rect x="386" y="841" width="5" height="8" fill="#ffd27a" opacity=".55"/><rect x="354" y="863" width="5" height="8" fill="#ffd27a" opacity=".55"/><rect x="402" y="863" width="5" height="8" fill="#ffd27a" opacity=".55"/><rect x="354" y="885" width="5" height="8" fill="#ffd27a" opacity=".55"/><rect x="417" y="651" width="74" height="249" fill="#04080d"/><rect x="456" y="664" width="5" height="8" fill="#ffd27a" opacity=".55"/><rect x="440" y="708" width="5" height="8" fill="#ffd27a" opacity=".55"/><rect x="472" y="730" width="5" height="8" fill="#ffd27a" opacity=".55"/><rect x="424" y="774" width="5" height="8" fill="#ffd27a" opacity=".55"/><rect x="440" y="818" width="5" height="8" fill="#ffd27a" opacity=".55"/><rect x="456" y="840" width="5" height="8" fill="#ffd27a" opacity=".55"/><rect x="456" y="862" width="5" height="8" fill="#ffd27a" opacity=".55"/><rect x="456" y="884" width="5" height="8" fill="#ffd27a" opacity=".55"/><rect x="495" y="838" width="95" height="62" fill="#04080d"/><rect x="503" y="874" width="5" height="8" fill="#ffd27a" opacity=".55"/><rect x="594" y="816" width="48" height="84" fill="#04080d"/><rect x="647" y="793" width="84" height="107" fill="#04080d"/><rect x="654" y="828" width="5" height="8" fill="#ffd27a" opacity=".55"/><rect x="670" y="828" width="5" height="8" fill="#ffd27a" opacity=".55"/><rect x="702" y="828" width="5" height="8" fill="#ffd27a" opacity=".55"/><rect x="702" y="850" width="5" height="8" fill="#ffd27a" opacity=".55"/><rect x="740" y="656" width="101" height="244" fill="#04080d"/><rect x="764" y="670" width="5" height="8" fill="#ffd27a" opacity=".55"/><rect x="748" y="736" width="5" height="8" fill="#ffd27a" opacity=".55"/><rect x="828" y="736" width="5" height="8" fill="#ffd27a" opacity=".55"/><rect x="812" y="780" width="5" height="8" fill="#ffd27a" opacity=".55"/><rect x="828" y="802" width="5" height="8" fill="#ffd27a" opacity=".55"/><rect x="796" y="824" width="5" height="8" fill="#ffd27a" opacity=".55"/><rect x="812" y="824" width="5" height="8" fill="#ffd27a" opacity=".55"/><rect x="748" y="846" width="5" height="8" fill="#ffd27a" opacity=".55"/><rect x="764" y="846" width="5" height="8" fill="#ffd27a" opacity=".55"/><rect x="780" y="846" width="5" height="8" fill="#ffd27a" opacity=".55"/><rect x="796" y="846" width="5" height="8" fill="#ffd27a" opacity=".55"/><rect x="812" y="868" width="5" height="8" fill="#ffd27a" opacity=".55"/><rect x="847" y="776" width="59" height="124" fill="#04080d"/><rect x="886" y="811" width="5" height="8" fill="#ffd27a" opacity=".55"/><rect x="870" y="833" width="5" height="8" fill="#ffd27a" opacity=".55"/><rect x="886" y="877" width="5" height="8" fill="#ffd27a" opacity=".55"/><rect x="911" y="794" width="88" height="106" fill="#04080d"/><rect x="935" y="829" width="5" height="8" fill="#ffd27a" opacity=".55"/><rect x="919" y="851" width="5" height="8" fill="#ffd27a" opacity=".55"/><rect x="935" y="851" width="5" height="8" fill="#ffd27a" opacity=".55"/><rect x="1009" y="697" width="106" height="203" fill="#04080d"/><rect x="1032" y="710" width="5" height="8" fill="#ffd27a" opacity=".55"/><rect x="1080" y="732" width="5" height="8" fill="#ffd27a" opacity=".55"/><rect x="1064" y="776" width="5" height="8" fill="#ffd27a" opacity=".55"/><rect x="1080" y="776" width="5" height="8" fill="#ffd27a" opacity=".55"/><rect x="1080" y="798" width="5" height="8" fill="#ffd27a" opacity=".55"/><rect x="1016" y="820" width="5" height="8" fill="#ffd27a" opacity=".55"/><rect x="1096" y="820" width="5" height="8" fill="#ffd27a" opacity=".55"/><rect x="1016" y="842" width="5" height="8" fill="#ffd27a" opacity=".55"/><rect x="1032" y="842" width="5" height="8" fill="#ffd27a" opacity=".55"/><rect x="1080" y="864" width="5" height="8" fill="#ffd27a" opacity=".55"/><rect x="1121" y="647" width="47" height="253" fill="#04080d"/><rect x="1145" y="705" width="5" height="8" fill="#ffd27a" opacity=".55"/><rect x="1145" y="727" width="5" height="8" fill="#ffd27a" opacity=".55"/><rect x="1129" y="793" width="5" height="8" fill="#ffd27a" opacity=".55"/><rect x="1129" y="815" width="5" height="8" fill="#ffd27a" opacity=".55"/><rect x="1145" y="837" width="5" height="8" fill="#ffd27a" opacity=".55"/><rect x="1173" y="729" width="104" height="171" fill="#04080d"/><rect x="1180" y="743" width="5" height="8" fill="#ffd27a" opacity=".55"/><rect x="1228" y="743" width="5" height="8" fill="#ffd27a" opacity=".55"/><rect x="1244" y="743" width="5" height="8" fill="#ffd27a" opacity=".55"/><rect x="1244" y="765" width="5" height="8" fill="#ffd27a" opacity=".55"/><rect x="1212" y="787" width="5" height="8" fill="#ffd27a" opacity=".55"/><rect x="1180" y="831" width="5" height="8" fill="#ffd27a" opacity=".55"/><rect x="1212" y="853" width="5" height="8" fill="#ffd27a" opacity=".55"/><rect x="1228" y="875" width="5" height="8" fill="#ffd27a" opacity=".55"/><rect x="1286" y="710" width="53" height="190" fill="#04080d"/><rect x="1294" y="746" width="5" height="8" fill="#ffd27a" opacity=".55"/><rect x="1310" y="790" width="5" height="8" fill="#ffd27a" opacity=".55"/><rect x="1326" y="790" width="5" height="8" fill="#ffd27a" opacity=".55"/><rect x="1310" y="812" width="5" height="8" fill="#ffd27a" opacity=".55"/><rect x="1326" y="812" width="5" height="8" fill="#ffd27a" opacity=".55"/><rect x="1346" y="691" width="50" height="209" fill="#04080d"/><rect x="1386" y="793" width="5" height="8" fill="#ffd27a" opacity=".55"/><rect x="1354" y="837" width="5" height="8" fill="#ffd27a" opacity=".55"/><rect x="1370" y="859" width="5" height="8" fill="#ffd27a" opacity=".55"/><rect x="1403" y="783" width="41" height="117" fill="#04080d"/><rect x="1427" y="797" width="5" height="8" fill="#ffd27a" opacity=".55"/><rect x="1427" y="841" width="5" height="8" fill="#ffd27a" opacity=".55"/><rect x="1411" y="863" width="5" height="8" fill="#ffd27a" opacity=".55"/><rect x="1450" y="765" width="94" height="135" fill="#04080d"/><rect x="1474" y="779" width="5" height="8" fill="#ffd27a" opacity=".55"/><rect x="1458" y="845" width="5" height="8" fill="#ffd27a" opacity=".55"/><rect x="1458" y="867" width="5" height="8" fill="#ffd27a" opacity=".55"/><rect x="1458" y="889" width="5" height="8" fill="#ffd27a" opacity=".55"/><rect x="1548" y="693" width="44" height="207" fill="#04080d"/><rect x="1556" y="707" width="5" height="8" fill="#ffd27a" opacity=".55"/><rect x="1572" y="707" width="5" height="8" fill="#ffd27a" opacity=".55"/><rect x="1572" y="729" width="5" height="8" fill="#ffd27a" opacity=".55"/><rect x="1600" y="642" width="58" height="258" fill="#04080d"/><rect x="1639" y="656" width="5" height="8" fill="#ffd27a" opacity=".55"/><rect x="1623" y="678" width="5" height="8" fill="#ffd27a" opacity=".55"/><rect x="1639" y="722" width="5" height="8" fill="#ffd27a" opacity=".55"/><rect x="1623" y="766" width="5" height="8" fill="#ffd27a" opacity=".55"/><rect x="1639" y="766" width="5" height="8" fill="#ffd27a" opacity=".55"/><rect x="1623" y="854" width="5" height="8" fill="#ffd27a" opacity=".55"/><rect x="1639" y="854" width="5" height="8" fill="#ffd27a" opacity=".55"/><rect x="1639" y="876" width="5" height="8" fill="#ffd27a" opacity=".55"/><rect width="1600" height="900" fill="url(#vig)"/><rect width="1600" height="900" filter="url(#g)"/></svg>