<svg xmlns="http://www.w3.org/2000/svg" viewBox="0 0 1600 900" preserveAspectRatio="xMidYMid slice"><defs><linearGradient id="s" x1="0" y1="0" x2="0" y2="1"><stop offset="0" stop-color="#1b1036"/><stop offset="0.45" stop-color="#6b2c5a"/><stop offset="0.75" stop-color="#e0714a"/><stop offset="1" stop-color="#f5b562"/></linearGradient><filter id="g" x="0" y="0" width="100%" height="100%"><feTurbulence type="fractalNoise" baseFrequency=".9" numOctaves="2" stitchTiles="stitch"/><feColorMatrix values="0 0 0 0 1  0 0 0 0 1  0 0 0 0 1  0 0 0 .07 0"/></filter><filter id="b" filterUnits="userSpaceOnUse" x="-400" y="-400" width="2400" height="1700"><feGaussianBlur stdDeviation="40"/></filter><filter id="b2" x="-20%" y="-20%" width="140%" height="140%"><feGaussianBlur stdDeviation="8"/></filter><linearGradient id="vig" x1="0" y1="0" x2="0" y2="1"><stop offset=".45" stop-color="#000" stop-opacity="0"/><stop offset="1" stop-color="#000" stop-opacity=".85"/></linearGradient></defs><rect width="1600" height="900" fill="url(#s)"/><circle cx="1530" cy="284" r="0.8" fill="#fff" opacity="0.24"/><circle cx="578" cy="51" r="1.2" fill="#fff" opacity="0.30"/><circle cx="340" cy="11" r="1.0" fill="#fff" opacity="0.60"/><circle cx="1022" cy="241" r="1.2" fill="#fff" opacity="0.42"/><circle cx="712" cy="80" r="0.8" fill="#fff" opacity="0.55"/><circle cx="582" cy="280" r="1.6" fill="#fff" opacity="0.37"/><circle cx="1415" cy="49" r="1.0" fill="#fff" opacity="0.29"/><circle cx="38" cy="98" r="1.0" fill="#fff" opacity="0.40"/><circle cx="576" cy="154" r="1.0" fill="#fff" opacity="0.60"/><circle cx="713" cy="124" r="1.2" fill="#fff" opacity="0.52"/><circle cx="566" cy="294" r="1.6" fill="#fff" opacity="0.26"/><circle cx="1206" cy="215" r="1.6" fill="#fff" opacity="0.46"/><circle cx="400" cy="84" r="1.6" fill="#fff" opacity="0.40"/><circle cx="1330" cy="106" r="1.6" fill="#fff" opacity="0.56"/><circle cx="738" cy="170" r="1.6" fill="#fff" opacity="0.39"/><circle cx="355" cy="97" r="1.0" fill="#fff" opacity="0.55"/><circle cx="986" cy="232" r="1.6" fill="#fff" opacity="0.32"/><circle cx="1532" cy="212" r="1.6" fill="#fff" opacity="0.32"/><circle cx="333" cy="154" r="0.8" fill="#fff" opacity="0.51"/><circle cx="546" cy="3" r="1.0" fill="#fff" opacity="0.60"/><circle cx="170" cy="172" r="0.8" fill="#fff" opacity="0.31"/><circle cx="363" cy="263" r="0.8" fill="#fff" opacity="0.50"/><circle cx="218" cy="80" r="1.0" fill="#fff" opacity="0.58"/><circle cx="97" cy="269" r="0.8" fill="#fff" opacity="0.22"/><circle cx="576" cy="75" r="0.8" fill="#fff" opacity="0.23"/><circle cx="1527" cy="8" r="0.8" fill="#fff" opacity="0.35"/><circle cx="204" cy="281" r="1.0" fill="#fff" opacity="0.41"/><circle cx="3" cy="177" r="1.0" fill="#fff" opacity="0.26"/><circle cx="58" cy="103" r="0.8" fill="#fff" opacity="0.31"/><circle cx="782" cy="93" r="0.8" fill="#fff" opacity="0.56"/><circle cx="1209" cy="259" r="1.0" fill="#fff" opacity="0.39"/><circle cx="361" cy="198" r="1.2" fill="#fff" opacity="0.54"/><circle cx="39" cy="237" r="1.0" fill="#fff" opacity="0.41"/><circle cx="1250" cy="146" r="1.2" fill="#fff" opacity="0.26"/><circle cx="1536" cy="78" r="1.6" fill="#fff" opacity="0.46"/><circle cx="1119" cy="288" r="0.8" fill="#fff" opacity="0.30"/><circle cx="211" cy="51" r="1.6" fill="#fff" opacity="0.45"/><circle cx="813" cy="295" r="0.8" fill="#fff" opacity="0.60"/><circle cx="372" cy="133" r="1.2" fill="#fff" opacity="0.23"/><circle cx="365" cy="237" r="1.2" fill="#fff" opacity="0.30"/><circle cx="677" cy="158" r="0.8" fill="#fff" opacity="0.26"/><circle cx="616" cy="48" r="0.8" fill="#fff" opacity="0.30"/><circle cx="160" cy="55" r="1.0" fill="#fff" opacity="0.24"/><circle cx="39" cy="201" r="1.6" fill="#fff" opacity="0.32"/><circle cx="1027" cy="64" r="1.0" fill="#fff" opacity="0.49"/><circle cx="694" cy="153" r="0.8" fill="#fff" opacity="0.55"/><circle cx="1486" cy="174" r="0.8" fill="#fff" opacity="0.47"/><circle cx="768" cy="6" r="0.8" fill="#fff" opacity="0.44"/><circle cx="463" cy="295" r="1.2" fill="#fff" opacity="0.32"/><circle cx="1399" cy="124" r="0.8" fill="#fff" opacity="0.32"/><circle cx="1345" cy="202" r="0.8" fill="#fff" opacity="0.52"/><circle cx="96" cy="191" r="1.6" fill="#fff" opacity="0.28"/><circle cx="942" cy="22" r="1.2" fill="#fff" opacity="0.21"/><circle cx="489" cy="217" r="1.0" fill="#fff" opacity="0.50"/><circle cx="308" cy="171" r="1.6" fill="#fff" opacity="0.49"/><circle cx="223" cy="103" r="0.8" fill="#fff" opacity="0.30"/><circle cx="197" cy="185" r="1.2" fill="#fff" opacity="0.46"/><circle cx="1535" cy="208" r="0.8" fill="#fff" opacity="0.45"/><circle cx="753" cy="13" r="1.6" fill="#fff" opacity="0.32"/><circle cx="1535" cy="42" r="1.2" fill="#fff" opacity="0.31"/><circle cx="1180" cy="240" r="150" fill="#ffd7a0" opacity=".25" filter="url(#b)"/><mask id="m"><circle cx="1180" cy="240" r="70" fill="#fff"/><circle cx="1212" cy="222" r="62" fill="#000"/></mask><circle cx="1180" cy="240" r="70" fill="#fff1d6" mask="url(#m)"/><g fill="#1a0c1e" transform="translate(560,900) scale(1.15)"><rect x="-260" y="-150" width="520" height="150"/><path d="M-130 -150 Q-130 -330 0 -360 Q130 -330 130 -150Z"/><rect x="-4" y="-400" width="8" height="44"/><circle cx="0" cy="-404" r="10"/><path d="M-250 -150 Q-250 -240 -190 -250 Q-130 -240 -130 -150Z"/><rect x="-346" y="-430" width="32" height="430"/><path d="M-352 -430 L-330 -500 L-308 -430Z"/><rect x="-356" y="-300" width="52" height="10"/><path d="M130 -150 Q130 -240 190 -250 Q250 -240 250 -150Z"/><rect x="314" y="-430" width="32" height="430"/><path d="M308 -430 L330 -500 L352 -430Z"/><rect x="304" y="-300" width="52" height="10"/><path d="M-238 0 V-70 Q-220 -100 -202 -70 V0Z" fill="#ffb35c" opacity=".35"/><path d="M-178 0 V-70 Q-160 -100 -142 -70 V0Z" fill="#ffb35c" opacity=".35"/><path d="M-118 0 V-70 Q-100 -100 -82 -70 V0Z" fill="#ffb35c" opacity=".35"/><path d="M-58 0 V-70 Q-40 -100 -22 -70 V0Z" fill="#ffb35c" opacity=".35"/><path d="M2 0 V-70 Q20 -100 38 -70 V0Z" fill="#ffb35c" opacity=".35"/><path d="M62 0 V-70 Q80 -100 98 -70 V0Z" fill="#ffb35c" opacity=".35"/><path d="M122 0 V-70 Q140 -100 158 -70 V0Z" fill="#ffb35c" opacity=".35"/><path d="M182 0 V-70 Q200 -100 218 -70 V0Z" fill="#ffb35c" opacity=".35"/></g><rect y="720" width="1600" height="180" fill="#2a1026" opacity=".6" filter="url(#b)"/><rect width="1600" height="900" fill="url(#vig)"/><rect width="1600" height="900" filter="url(#g)"/></svg>